<?xml version="1.0" encoding="utf-8"?>
<!-- Generator: Adobe Illustrator 16.0.0, SVG Export Plug-In . SVG Version: 6.00 Build 0)  -->
<!DOCTYPE svg PUBLIC "-//W3C//DTD SVG 1.1//EN" "http://www.w3.org/Graphics/SVG/1.1/DTD/svg11.dtd">
<svg version="1.1" id="Layer_1" xmlns="http://www.w3.org/2000/svg" xmlns:xlink="http://www.w3.org/1999/xlink" x="0px" y="0px"
	 width="161.57px" height="42.52px" viewBox="0 0 161.57 42.52" enable-background="new 0 0 161.57 42.52" xml:space="preserve">
<g>
	<g>
		<path fill="#305C7A" d="M46.416,18.027h2.688v1.057c0.032,0.64,0.064,1.24,0.096,1.799c0.031,0.561,0.063,1.161,0.096,1.801
			c0.64-1.537,1.648-2.752,3.024-3.649c1.375-0.896,2.976-1.359,4.8-1.392c1.728,0,3.112,0.44,4.152,1.319
			c1.04,0.881,1.64,2.041,1.8,3.481c0.704-1.472,1.736-2.632,3.096-3.481c1.36-0.848,2.92-1.287,4.68-1.319
			c1.824,0,3.264,0.496,4.32,1.487c1.056,0.992,1.616,2.289,1.68,3.889v13.008h-2.976V24.172c-0.064-0.928-0.408-1.744-1.032-2.45
			c-0.624-0.703-1.576-1.087-2.856-1.151c-0.896,0-1.752,0.152-2.568,0.456c-0.816,0.305-1.536,0.729-2.16,1.272
			c-0.624,0.545-1.128,1.193-1.512,1.943c-0.384,0.754-0.593,1.561-0.624,2.426v9.359h-2.976V24.172
			c-0.064-0.928-0.408-1.744-1.032-2.45c-0.624-0.703-1.576-1.087-2.856-1.151c-0.896,0-1.76,0.161-2.592,0.479
			c-0.833,0.32-1.56,0.753-2.184,1.297c-0.624,0.543-1.121,1.191-1.488,1.943c-0.369,0.752-0.552,1.576-0.552,2.473v9.264h-3.024
			V18.027z"/>
		<path fill="#305C7A" d="M81.936,27.004c0-1.281,0.248-2.496,0.744-3.648s1.176-2.153,2.04-3s1.872-1.52,3.024-2.016
			c1.151-0.496,2.383-0.744,3.695-0.744c1.344,0,2.6,0.248,3.768,0.744s2.185,1.168,3.049,2.016c0.863,0.848,1.543,1.848,2.039,3
			s0.744,2.367,0.744,3.648c0,1.312-0.248,2.535-0.744,3.672c-0.496,1.135-1.176,2.127-2.039,2.975
			c-0.864,0.85-1.881,1.521-3.049,2.018c-1.168,0.494-2.424,0.742-3.768,0.742c-1.312,0-2.544-0.248-3.695-0.742
			c-1.152-0.496-2.16-1.168-3.024-2.018c-0.864-0.848-1.544-1.84-2.04-2.975C82.184,29.539,81.936,28.316,81.936,27.004z
			 M84.912,27.051c0,0.896,0.168,1.736,0.504,2.52c0.336,0.785,0.799,1.465,1.392,2.041c0.592,0.576,1.279,1.031,2.063,1.367
			s1.624,0.504,2.521,0.504c0.896,0,1.735-0.168,2.521-0.504c0.783-0.336,1.471-0.791,2.063-1.367
			c0.592-0.576,1.056-1.256,1.392-2.041c0.336-0.783,0.504-1.623,0.504-2.52c0-0.895-0.168-1.744-0.504-2.543
			c-0.336-0.801-0.8-1.496-1.392-2.088c-0.593-0.592-1.28-1.057-2.063-1.393c-0.785-0.336-1.625-0.504-2.521-0.504
			c-0.896,0-1.736,0.168-2.521,0.504s-1.472,0.801-2.063,1.393c-0.593,0.592-1.056,1.287-1.392,2.088
			C85.08,25.307,84.912,26.156,84.912,27.051z"/>
		<path fill="#60AFCC" d="M117.359,32.092c0.576,0.736,1.184,1.486,1.824,2.256c-0.832,0.641-1.752,1.145-2.76,1.512
			s-2.088,0.551-3.24,0.551c-1.312,0-2.544-0.248-3.695-0.742c-1.152-0.496-2.16-1.168-3.024-2.018
			c-0.864-0.848-1.544-1.84-2.04-2.975c-0.496-1.137-0.744-2.359-0.744-3.672c0-1.281,0.248-2.496,0.744-3.648s1.176-2.153,2.04-3
			s1.872-1.52,3.024-2.016c1.151-0.496,2.383-0.744,3.695-0.744c1.184,0,2.28,0.184,3.288,0.552s1.927,0.872,2.76,1.512
			c-0.319,0.384-0.64,0.761-0.96,1.128c-0.32,0.369-0.624,0.744-0.912,1.129c-0.576-0.448-1.217-0.793-1.92-1.033
			c-0.704-0.239-1.456-0.359-2.256-0.359c-0.928,0-1.793,0.168-2.592,0.504c-0.801,0.336-1.488,0.792-2.064,1.368
			c-0.576,0.576-1.031,1.266-1.367,2.064c-0.336,0.801-0.504,1.648-0.504,2.545c0,0.928,0.168,1.783,0.504,2.566
			c0.336,0.785,0.791,1.465,1.367,2.041s1.264,1.031,2.064,1.367c0.799,0.336,1.664,0.504,2.592,0.504
			c0.832,0,1.592-0.119,2.28-0.359C116.151,32.883,116.783,32.539,117.359,32.092z"/>
		<path fill="#60AFCC" d="M136.127,32.092c0.576,0.736,1.184,1.486,1.824,2.256c-0.832,0.641-1.752,1.145-2.76,1.512
			s-2.088,0.551-3.24,0.551c-1.312,0-2.544-0.248-3.695-0.742c-1.152-0.496-2.16-1.168-3.024-2.018
			c-0.864-0.848-1.544-1.84-2.04-2.975c-0.496-1.137-0.744-2.359-0.744-3.672c0-1.281,0.248-2.496,0.744-3.648s1.176-2.153,2.04-3
			s1.872-1.52,3.024-2.016c1.151-0.496,2.383-0.744,3.695-0.744c1.184,0,2.28,0.184,3.288,0.552s1.927,0.872,2.76,1.512
			c-0.319,0.384-0.64,0.761-0.96,1.128c-0.32,0.369-0.624,0.744-0.912,1.129c-0.576-0.448-1.217-0.793-1.92-1.033
			c-0.704-0.239-1.456-0.359-2.256-0.359c-0.928,0-1.793,0.168-2.592,0.504c-0.801,0.336-1.488,0.792-2.064,1.368
			c-0.576,0.576-1.031,1.266-1.367,2.064c-0.336,0.801-0.504,1.648-0.504,2.545c0,0.928,0.168,1.783,0.504,2.566
			c0.336,0.785,0.791,1.465,1.367,2.041s1.264,1.031,2.064,1.367c0.799,0.336,1.664,0.504,2.592,0.504
			c0.832,0,1.592-0.119,2.28-0.359C134.919,32.883,135.551,32.539,136.127,32.092z"/>
		<path fill="#60AFCC" d="M141.215,27.004c0-1.281,0.248-2.496,0.744-3.648s1.176-2.153,2.04-3s1.872-1.52,3.024-2.016
			c1.151-0.496,2.383-0.744,3.695-0.744c1.344,0,2.6,0.248,3.768,0.744s2.185,1.168,3.049,2.016c0.863,0.848,1.543,1.848,2.039,3
			s0.744,2.367,0.744,3.648c0,1.312-0.248,2.535-0.744,3.672c-0.496,1.135-1.176,2.127-2.039,2.975
			c-0.864,0.85-1.881,1.521-3.049,2.018c-1.168,0.494-2.424,0.742-3.768,0.742c-1.312,0-2.544-0.248-3.695-0.742
			c-1.152-0.496-2.16-1.168-3.024-2.018c-0.864-0.848-1.544-1.84-2.04-2.975C141.463,29.539,141.215,28.316,141.215,27.004z
			 M144.191,27.051c0,0.896,0.168,1.736,0.504,2.52c0.336,0.785,0.799,1.465,1.392,2.041c0.592,0.576,1.279,1.031,2.063,1.367
			s1.624,0.504,2.521,0.504c0.896,0,1.735-0.168,2.521-0.504c0.783-0.336,1.471-0.791,2.063-1.367
			c0.592-0.576,1.056-1.256,1.392-2.041c0.336-0.783,0.504-1.623,0.504-2.52c0-0.895-0.168-1.744-0.504-2.543
			c-0.336-0.801-0.8-1.496-1.392-2.088c-0.593-0.592-1.28-1.057-2.063-1.393c-0.785-0.336-1.625-0.504-2.521-0.504
			c-0.896,0-1.736,0.168-2.521,0.504s-1.472,0.801-2.063,1.393c-0.593,0.592-1.056,1.287-1.392,2.088
			C144.359,25.307,144.191,26.156,144.191,27.051z"/>
	</g>
	<g>
		<path fill="#60AFCC" d="M13.518,36.639c-0.564,1.049-1.076,2.195-1.508,3.477c0,0,15.616,6.764,25.082-12.406
			c-0.003,0-0.007,0-0.01,0C27.934,36.42,19.673,37.695,13.518,36.639z"/>
		<rect x="37.1" y="27.69" fill="#305C7A" width="0.002" height="0.002"/>
		<polygon fill="#305C7A" points="37.1,27.691 37.098,27.693 37.098,27.693 		"/>
		<path fill="#305C7A" d="M37.082,27.709c-0.01,0-0.02-0.002-0.03-0.002c-13.389,4.564-22.301,1.848-27.943-2.164
			c-2.278,1.387-4.512,3.303-6.616,5.92c0,0,4.229,4.01,11.025,5.176C19.673,37.695,27.934,36.42,37.082,27.709z"/>
		<path fill="#60AFCC" d="M37.052,27.707C19.831,27.41,11.485,20.018,7.443,13.123c-2.12,0.484-4.333,1.254-6.642,2.403
			c0,0,2.298,5.743,8.308,10.017C14.751,29.555,23.664,32.271,37.052,27.707z"/>
		<polygon fill="#60AFCC" points="37.101,27.689 37.101,27.691 37.102,27.689 37.101,27.689 37.096,27.684 37.098,27.693 
			37.1,27.691 37.098,27.693 37.099,27.695 37.101,27.691 37.102,27.691 37.101,27.691 		"/>
		<path fill="#305C7A" d="M37.098,27.693c0-0.002-0.001-0.008-0.002-0.01C36.987,27.121,31.202-1.965,3.655,1.248
			c0,0,0.191,5.741,3.788,11.875c4.042,6.896,12.388,14.288,29.609,14.584c0.01,0,0.02,0.002,0.03,0.002c0.003,0,0.006,0,0.01,0
			c0.003,0,0.006,0,0.01,0c0,0-0.002-0.01-0.003-0.014L37.098,27.693L37.098,27.693z"/>
	</g>
</g>
</svg>
